<svg xmlns="http://www.w3.org/2000/svg" viewBox="0 0 512 512"><defs><style>.a{fill:#e66516;}</style></defs><path class="a" d="M506.01328,394.52724q-49.84717,0-67.53859-1.07308-34.30845-1.60571-46.09532-8.04025-17.164-9.64593-17.15357-40.20123V156Q340.37558,236.40241,267.486,394.52724H249.262L144.73875,169.40036q-1.07962,104.5232-11.79341,164.02153Q112.56991,443.2961,56.83258,462.06582a59.28631,59.28631,0,0,1-19.29711,3.75055q-13.39125,0-23.04766-6.96717Q2.70225,451.335,2.6944,438.48163A23.66438,23.66438,0,0,1,11.00161,420.255a27.57594,27.57594,0,0,1,19.03015-7.50371q9.64595,0,21.44066,10.72033,11.78163,10.71771,16.617,10.72032,30.00958,0,30.01482-175.27578,0-64.852-3.75054-160.271Q87.38133,84.71606,50.93588,83.1012V70.77387q72.904,0,92.74026,2.68008,35.37629,3.75709,47.16839,25.20167l86.84356,158.68493,62.168-132.4285q13.933-30.85758,38.05768-42.22961,18.2162-8.65662,57.34695-10.82764,22.51113-1.08354,70.7526-1.08093V84.71082q-29.48352,0-36.98461,6.98287-7.51417,6.98811-7.50371,35.97172V345.12893q0,20.94468,6.43063,27.12013,6.43455,6.17937,38.05769,9.38813Z"/></svg>